HIERARCHY
ROOT Hips
{
 OFFSET 0.000000 0.000000 0.000000
 CHANNELS 6 Xposition Yposition Zposition Yrotation Xrotation Zrotation
 JOINT Chest
 {
  OFFSET 0.000000 9.585900 0.002600
  CHANNELS 3 Yrotation Xrotation Zrotation
  JOINT Chest2
  {
   OFFSET 0.000000 9.601200 -0.005300
   CHANNELS 3 Yrotation Xrotation Zrotation
   JOINT Chest3
   {
    OFFSET 0.000000 9.561800 0.000000
    CHANNELS 3 Yrotation Xrotation Zrotation
    JOINT Chest4
    {
     OFFSET 0.000000 9.552100 0.000000
     CHANNELS 3 Yrotation Xrotation Zrotation
     JOINT Neck
     {
      OFFSET 0.000000 14.453000 0.000000
      CHANNELS 3 Yrotation Xrotation Zrotation
      JOINT Head
      {
       OFFSET 0.000000 8.936500 -0.011300
       CHANNELS 3 Yrotation Xrotation Zrotation
       End Site
       {
        OFFSET 0.000000 17.073600 -0.006000
       }
      }
     }
     JOINT RightCollar
     {
      OFFSET -2.921100 9.558500 0.000000
      CHANNELS 3 Yrotation Xrotation Zrotation
      JOINT RightShoulder
      {
       OFFSET -13.519700 0.000000 0.000000
       CHANNELS 3 Yrotation Xrotation Zrotation
       JOINT RightElbow
       {
        OFFSET 0.000000 -29.696600 0.000000
        CHANNELS 3 Yrotation Xrotation Zrotation
        JOINT RightWrist
        {
         OFFSET 0.000000 -24.004700 0.000000
         CHANNELS 3 Yrotation Xrotation Zrotation
         End Site
         {
          OFFSET 0.000000 -17.728500 0.000000
         }
        }
       }
      }
     }
     JOINT LeftCollar
     {
      OFFSET 2.921100 9.558500 0.000000
      CHANNELS 3 Yrotation Xrotation Zrotation
      JOINT LeftShoulder
      {
       OFFSET 13.519700 0.000000 0.000000
       CHANNELS 3 Yrotation Xrotation Zrotation
       JOINT LeftElbow
       {
        OFFSET 0.000000 -29.696600 0.000000
        CHANNELS 3 Yrotation Xrotation Zrotation
        JOINT LeftWrist
        {
         OFFSET 0.000000 -24.004700 0.000000
         CHANNELS 3 Yrotation Xrotation Zrotation
         End Site
         {
          OFFSET 0.000000 -17.728500 0.000000
         }
        }
       }
      }
     }
    }
   }
  }
 }
 JOINT RightHip
 {
  OFFSET -7.771700 -0.012900 -0.001300
  CHANNELS 3 Yrotation Xrotation Zrotation
  JOINT RightKnee
  {
   OFFSET 0.000000 -40.869800 0.001200
   CHANNELS 3 Yrotation Xrotation Zrotation
   JOINT RightAnkle
   {
    OFFSET 0.000000 -39.717900 0.002100
    CHANNELS 3 Yrotation Xrotation Zrotation
    JOINT RightToe
    {
     OFFSET 0.000000 -4.965400 11.033500
     CHANNELS 3 Yrotation Xrotation Zrotation
     End Site
     {
      OFFSET 0.000000 -1.423100 5.872300
     }
    }
   }
  }
 }
 JOINT LeftHip
 {
  OFFSET 7.771700 -0.012900 -0.001300
  CHANNELS 3 Yrotation Xrotation Zrotation
  JOINT LeftKnee
  {
   OFFSET 0.000000 -40.869800 0.001200
   CHANNELS 3 Yrotation Xrotation Zrotation
   JOINT LeftAnkle
   {
    OFFSET 0.000000 -39.717900 0.002100
    CHANNELS 3 Yrotation Xrotation Zrotation
    JOINT LeftToe
    {
     OFFSET 0.000000 -4.965400 11.033500
     CHANNELS 3 Yrotation Xrotation Zrotation
     End Site
     {
      OFFSET 0.000000 -1.423100 5.872300
     }
    }
   }
  }
 }
}
MOTION
Frames: 9
Frame Time: 0.008333
15.791141 48.710886 55.459780 173.335499 -34.846894 -7.251003 7.463762 19.664837 6.197911 0.868350 2.651509 0.652292 1.432210 4.316835 1.084756 6.222216 16.720872 4.983593 -2.842297 17.643516 2.142605 -5.948886 -2.860695 4.891522 -4.664777 -2.646508 -5.396535 7.082607 -5.445183 3.082396 33.323325 -77.671720 -43.900383 1.510478 -6.715981 2.167269 -7.061356 -1.948696 0.488698 1.686929 -1.497747 -0.860432 -115.011916 -82.311381 118.364106 15.035589 -5.045425 -5.340962 3.942582 -44.945484 10.579053 -98.908980 83.985143 -87.478058 -3.460651 -13.345969 0.805422 0.116471 0.614687 0.541386 -7.946551 -50.215739 15.540628 -151.965554 80.504129 -159.106653 0.810963 -17.164076 8.565941 -0.035295 0.027606 -0.003438
15.812360 48.714542 55.477243 173.266734 -34.718464 -7.234841 7.513179 19.627562 6.250013 0.868513 2.603863 0.629278 1.431959 4.373494 1.108471 6.215249 16.733772 4.979026 -2.840045 17.669054 2.132871 -5.940063 -2.814066 4.871418 -4.667127 -2.642395 -5.426989 7.051939 -5.372920 3.118364 34.171576 -77.719227 -44.739305 1.527037 -6.739037 2.085914 -7.059153 -1.956597 0.512246 1.743092 -1.401158 -0.832841 -115.579136 -82.175913 118.859598 14.979594 -5.046781 -5.630965 3.469219 -45.027206 10.917624 -98.584354 84.212256 -87.319246 -3.495392 -13.251693 0.220619 0.161421 0.434723 0.738207 -7.997295 -50.341736 15.633163 -152.097869 80.525438 -159.232770 0.801278 -17.144904 8.538094 -0.020746 0.017631 -0.010821
15.825037 48.724079 55.490495 173.191696 -34.574595 -7.176319 7.556324 19.579904 6.260779 0.866798 2.631964 0.640657 1.427347 4.326809 1.083364 6.211640 16.767324 4.989155 -2.837952 17.689577 2.120478 -5.930913 -2.777032 4.846779 -4.660432 -2.640310 -5.454013 7.008362 -5.293846 3.148142 34.981115 -77.802063 -45.527364 1.572564 -6.741155 1.954975 -7.066160 -1.963653 0.530147 1.810929 -1.310510 -0.791653 -116.202631 -82.051087 119.426910 14.876708 -4.980373 -6.013412 3.212968 -45.258582 11.035560 -99.429107 84.256606 -88.211948 -3.376442 -12.932375 -0.223192 0.163789 0.120461 0.807666 -8.053944 -50.472065 15.711812 -152.061804 80.539442 -159.244342 0.805645 -17.121564 8.529081 -0.038299 -0.000589 -0.019377
15.831066 48.744021 55.497129 173.136356 -34.432705 -7.100813 7.569636 19.489866 6.218565 0.873644 2.705806 0.673555 1.414285 4.231009 1.036440 6.212388 16.795312 5.001832 -2.830399 17.756013 2.128686 -5.925319 -2.749246 4.819044 -4.647008 -2.588114 -5.455369 6.952402 -5.213317 3.170840 35.771391 -77.879589 -46.290402 1.585753 -6.744127 1.789934 -7.086684 -1.917849 0.562103 1.887014 -1.226732 -0.736723 -116.730993 -81.930183 119.907331 14.765751 -4.864250 -6.467027 3.177467 -45.577966 10.947205 -101.115460 84.100065 -89.823007 -3.119969 -12.531397 -0.520460 0.126859 -0.205695 0.781521 -8.044590 -50.602796 15.705833 -152.098542 80.560422 -159.303538 0.811298 -17.089211 8.520836 -0.046379 -0.027684 -0.023691
15.833430 48.777051 55.495146 173.131263 -34.307269 -7.039161 7.542786 19.421662 6.165577 0.887058 2.748827 0.692534 1.416405 4.308329 1.071595 6.169729 16.688112 4.930240 -2.827475 17.813501 2.132593 -5.921738 -2.726659 4.789176 -4.630681 -2.540988 -5.451780 6.890406 -5.137469 3.185358 36.533034 -77.931409 -47.003967 1.530815 -6.765601 1.585687 -7.116951 -1.874901 0.585384 1.962647 -1.155740 -0.667951 -117.180370 -81.819455 120.320384 14.647397 -4.702445 -6.967393 3.316747 -45.910183 10.682980 -103.084969 83.812858 -91.600092 -2.787217 -12.162788 -0.689230 0.063076 -0.460870 0.682837 -8.053308 -50.708576 15.673002 -152.169140 80.584540 -159.397052 0.790356 -17.046839 8.509676 -0.042430 -0.066471 -0.023113
15.842522 48.824566 55.483431 173.134546 -34.222620 -7.022860 7.552773 19.427596 6.187163 0.889769 2.746144 0.688529 1.413476 4.331616 1.082002 6.136128 16.679017 4.915736 -2.829316 17.821415 2.115094 -5.917461 -2.701991 4.758260 -4.609073 -2.539763 -5.459770 6.831343 -5.074432 3.188774 36.808313 -78.014786 -47.202845 1.514901 -6.835934 1.325453 -7.131222 -1.926113 0.570043 2.013964 -1.056358 -0.570156 -117.544430 -81.720124 120.656069 14.524527 -4.503250 -7.490593 3.565351 -46.189579 10.364202 -104.919606 83.490535 -93.147090 -2.458786 -11.881335 -0.754631 -0.020400 -0.615790 0.528675 -8.074116 -50.762090 15.677747 -152.215263 80.606159 -159.451579 0.785488 -16.988481 8.501186 -0.047704 -0.135010 -0.026287
15.853876 48.877884 55.468008 173.236368 -34.116824 -7.071828 7.525309 19.473147 6.252158 0.861591 2.680411 0.659481 1.405838 4.331446 1.082220 6.105040 16.694781 4.919019 -2.827656 17.829841 2.095209 -5.911786 -2.667574 4.728914 -4.585101 -2.533672 -5.464512 6.786575 -5.028875 3.178052 37.208524 -78.113046 -47.571032 1.442506 -6.868273 1.086788 -7.180357 -1.907332 0.563009 2.092344 -1.045138 -0.481139 -117.794122 -81.631479 120.885366 14.407012 -4.290074 -8.023849 3.726499 -46.436978 10.078712 -106.407785 83.187859 -94.359101 -2.202886 -11.712556 -0.762221 -0.090230 -0.656020 0.365971 -8.193838 -50.829816 15.699869 -152.208598 80.629035 -159.458687 0.825875 -16.918625 8.477277 -0.080761 -0.211397 -0.020047
15.872202 48.937790 55.442590 173.408334 -34.040534 -7.185237 7.436711 19.497372 6.319927 0.847495 2.660096 0.651134 1.384132 4.299664 1.067335 6.094800 16.739066 4.942299 -2.826352 17.846467 2.076572 -5.903087 -2.618491 4.702213 -4.567034 -2.516443 -5.464065 6.763195 -4.998319 3.153484 37.500702 -78.211861 -47.846310 1.364203 -6.903088 0.821368 -7.240977 -1.884753 0.550896 2.166343 -1.049578 -0.384687 -117.930347 -81.553959 121.010982 14.295136 -4.092653 -8.548646 3.656199 -46.588903 9.992528 -107.425905 82.922672 -95.219227 -2.097190 -11.619904 -0.764961 -0.070515 -0.622888 0.252977 -8.413617 -50.858576 15.775055 -152.197864 80.638409 -159.469850 0.850007 -16.861646 8.456569 -0.094216 -0.277172 -0.018718
15.899959 49.000999 55.407338 173.575515 -34.000899 -7.329907 7.334822 19.499085 6.393046 0.845124 2.659859 0.651252 1.380131 4.301995 1.067615 6.094259 16.816457 4.986909 -2.833096 17.827821 2.040919 -5.892298 -2.554431 4.678063 -4.555643 -2.535360 -5.479803 6.745809 -5.029595 3.116823 37.381741 -78.281946 -47.679820 1.331360 -6.950247 0.483093 -7.296774 -1.924250 0.518557 2.216541 -1.046186 -0.281411 -117.955849 -81.482563 121.033700 14.183126 -3.930084 -9.040822 3.380097 -46.649637 10.127420 -108.079517 82.709984 -95.842762 -2.099153 -11.591680 -0.793481 0.006353 -0.538152 0.196393 -8.653014 -50.846155 15.896546 -152.314440 80.635231 -159.600286 0.863384 -16.820487 8.431729 -0.127209 -0.347476 -0.020111
